<svg xmlns="http://www.w3.org/2000/svg" viewBox="0 0 1831.085 1703.335" role="img" aria-hidden="true">
  <path fill="#0A2767" d="M1831.083 894.25c.1-14.318-7.298-27.644-19.503-35.131h-.213l-.767-.426-634.492-375.585c-2.74-1.851-5.583-3.543-8.517-5.067-24.498-12.639-53.599-12.639-78.098 0-2.934 1.525-5.777 3.216-8.517 5.067L446.486 858.693l-.766.426c-19.392 12.059-25.337 37.556-13.278 56.948 3.553 5.714 8.447 10.474 14.257 13.868l634.492 375.585c2.749 1.835 5.592 3.527 8.517 5.068 24.498 12.639 53.599 12.639 78.098 0 2.925-1.541 5.767-3.232 8.517-5.068l634.492-375.585c12.38-6.786 19.918-20.408 19.773-35.081z"/>
  <path fill="#0364B8" d="M520.453 643.477h416.38v381.674h-416.38V643.477zm1225.464-388.001V80.908c1-43.652-33.552-79.862-77.203-80.908H588.204C544.552 1.046 510 37.256 511 80.908V255.5l638.75 170.333L1745.917 255.5z"/>
  <path fill="#0078D4" d="M511 255.5h425.833v383.25H511V255.5z"/>
  <path fill="#28A8EA" d="M1362.667 255.5H936.833v383.25L1362.667 1022h383.25V638.75L1362.667 255.5z"/>
  <path fill="#0078D4" d="M936.833 638.75h425.833V1022H936.833V638.75z"/>
  <path fill="#0364B8" d="M936.833 1022h425.833v383.25H936.833V1022z"/>
  <path fill="#14447D" d="M520.453 1025.151h416.38v346.969h-416.38V1025.151z"/>
  <path fill="#0078D4" d="M1362.667 1022h383.25v383.25h-383.25V1022z"/>
  <linearGradient id="outlook-a" gradientUnits="userSpaceOnUse" x1="1128.4584" y1="811.0833" x2="1128.4584" y2="1.9982" gradientTransform="matrix(1 0 0 -1 0 1705.3334)">
    <stop offset="0" stop-color="#35B8F1"/>
    <stop offset="1" stop-color="#28A8EA"/>
  </linearGradient>
  <path fill="url(#outlook-a)" d="M1811.58 927.593l-.809.426-634.492 356.848c-2.768 1.703-5.578 3.321-8.517 4.769-10.777 5.132-22.481 8.029-34.407 8.517l-34.663-20.27c-2.929-1.47-5.773-3.105-8.517-4.897L447.167 906.003h-.298l-21.036-11.753v722.384c.328 48.196 39.653 87.006 87.849 86.7h1230.914c.724 0 1.363-.341 2.129-.341 10.18-.651 20.216-2.745 29.808-6.217 4.145-1.756 8.146-3.835 11.966-6.217 2.853-1.618 7.75-5.152 7.75-5.152 21.814-16.142 34.726-41.635 34.833-68.772V894.25c-.015 13.817-7.467 26.557-19.503 33.343z"/>
  <path fill="#0A2767" opacity=".5" d="M1797.017 891.397v44.287l-663.448 456.791L446.699 906.301c0-.235-.191-.426-.426-.426l-63.023-37.899v-31.938l25.976-.426 54.932 31.512 1.277.426 4.684 2.981s645.563 368.346 647.267 369.197l24.698 14.478c2.129-.852 4.258-1.703 6.813-2.555 1.278-.852 640.879-360.681 640.879-360.681l-1.277-44.713z"/>
  <path fill="#1490DF" d="M1811.58 927.593l-.809.468-634.492 356.848c-2.768 1.703-5.578 3.321-8.517 4.769-24.641 12.038-53.457 12.038-78.098 0-2.918-1.445-5.76-3.037-8.517-4.769L446.657 928.061l-.766-.468c-12.25-6.642-19.93-19.409-20.057-33.343v722.384c.305 48.188 39.616 87.004 87.803 86.7h1229.636c48.188.307 87.5-38.509 87.807-86.696V894.25c-.015 13.817-7.467 26.557-19.503 33.343z"/>
  <path fill="#28A8EA" d="M514.833 1703.333h1228.316c18.901.096 37.335-5.874 52.59-17.033l-697.089-408.331c-2.929-1.47-5.773-3.105-8.517-4.897L447.125 906.088h-.298l-20.993-11.838v719.914c-.346 48.188 39.5 87.004 87.688 87.245h-.003z"/>
  <linearGradient id="outlook-b" gradientUnits="userSpaceOnUse" x1="162.7469" y1="1383.0741" x2="774.0864" y2="324.2592" gradientTransform="matrix(1 0 0 -1 0 1705.3334)">
    <stop offset="0" stop-color="#1784D9"/>
    <stop offset=".5" stop-color="#107AD5"/>
    <stop offset="1" stop-color="#0A63C9"/>
  </linearGradient>
  <path fill="url(#outlook-b)" d="M78.055 383.25h780.723c43.109 0 78.055 34.947 78.055 78.055v780.723c0 43.109-34.946 78.055-78.055 78.055H78.055c-43.109 0-78.055-34.947-78.055-78.055V461.305C0 418.197 34.947 383.25 78.055 383.25z"/>
  <path fill="#fff" d="M243.96 710.631c19.238-40.988 50.29-75.289 89.17-98.495 43.057-24.651 92.081-36.94 141.675-35.515 45.965-.997 91.321 10.655 131.114 33.683 37.414 22.312 67.547 55.004 86.742 94.109 20.904 43.09 31.322 90.512 30.405 138.396 1.013 50.043-9.706 99.628-31.299 144.783-19.652 40.503-50.741 74.36-89.425 97.388-41.327 23.734-88.367 35.692-136.011 34.578-46.947 1.133-93.303-10.651-134.01-34.067-37.738-22.341-68.249-55.07-87.892-94.28-21.028-42.467-31.57-89.355-30.745-136.735 1.103-48.772 11.453-97.945 32.255-143.001zm95.046 231.227c10.257 25.912 27.651 48.385 50.163 64.812 22.93 16.026 50.387 24.294 78.353 23.591 29.783 1.178 59.14-7.372 83.634-24.358 22.227-16.375 39.164-38.909 48.715-64.812 10.677-28.928 15.946-59.572 15.543-90.404.33-31.127-4.623-62.084-14.649-91.554-8.855-26.607-25.246-50.069-47.182-67.537-23.88-17.79-53.158-26.813-82.91-25.55-28.572-.74-56.644 7.593-80.184 23.804-22.893 16.496-40.617 39.168-51.1 65.365-23.255 60.049-23.376 126.595-.341 186.728z"/>
  <path fill="#50D9FF" d="M1362.667 255.5h383.25v383.25h-383.25V255.5z"/>
</svg>
