<svg xmlns="http://www.w3.org/2000/svg" viewBox="0 0 48 48" role="img" aria-hidden="true">
  <g transform="translate(4.8 9.6) scale(0.4364)">
    <path fill="#4285f4" d="M6 66h14V32L0 17v43c0 3.32 2.69 6 6 6"/>
    <path fill="#34a853" d="M68 66h14c3.32 0 6-2.69 6-6V17l-20 15"/>
    <path fill="#fbbc04" d="M68 6v26l20-15v-8c0-7.42-8.47-11.65-14.4-7.2"/>
    <path fill="#ea4335" d="M20 32V6l24 18 24-18v26L44 50"/>
    <path fill="#c5221f" d="M0 9v8l20 15V6L14.4 1.8C8.46-2.65 0 1.58 0 9"/>
  </g>
</svg>
